<?xml version="1.0" encoding="UTF-8"?>
<!-- Generator: Adobe Illustrator 28.0.0, SVG Export Plug-In . SVG Version: 6.00 Build 0)  -->
<svg xmlns="http://www.w3.org/2000/svg" xmlns:xlink="http://www.w3.org/1999/xlink" version="1.1" id="Layer_1" x="0px" y="0px" viewBox="0 0 1986 975" style="enable-background:new 0 0 1986 975;" xml:space="preserve">
<style type="text/css">
	
		.st0{clip-path:url(#SVGID_00000129914130226610351290000018443734822215198133_);fill:url(#Rectangle_60_00000129897021572774696840000004656982810468761764_);}
	.st1{enable-background:new    ;}
	.st2{fill:url(#Subtraction_1_00000044893721743507095820000002702590259646221729_);}
</style>
<g>
	<g id="Group_55" transform="translate(-9622 -16776)">
		<g id="Group_43" transform="translate(-3341 7737)">
			<g id="Group_32" transform="translate(-134.031 -12.912)">
				<g>
					<defs>
						<path id="SVGID_1_" d="M13111.5,9600.7c0-17.1,3.2-34.1,9.6-51c6.4-16.9,15.7-32.1,28-45.4c12.3-13.3,27.2-24.1,44.8-32.4        c17.6-8.3,37.6-12.4,60-12.4c26.7,0,49.8,5.7,69.4,17.2c19.6,11.5,34.2,26.4,43.8,44.8l-50.4,35.2        c-3.2-7.5-7.3-13.7-12.2-18.6c-4.9-4.9-10.3-8.9-16.2-12c-5.9-3.1-11.9-5.2-18-6.4c-6.1-1.2-12.1-1.8-18-1.8        c-12.5,0-23.5,2.5-32.8,7.6c-9.3,5.1-17.1,11.6-23.2,19.6c-6.1,8-10.7,17.1-13.6,27.2c-2.9,10.1-4.4,20.4-4.4,30.8        c0,11.2,1.7,22,5.2,32.4c3.5,10.4,8.5,19.6,15,27.6c6.5,8,14.4,14.3,23.6,19c9.2,4.7,19.5,7,31,7c5.9,0,11.9-0.7,18.2-2.2        c6.3-1.5,12.3-3.7,18-6.8c5.7-3.1,11-7.1,15.8-12c4.8-4.9,8.7-11,11.6-18.2l53.6,31.6c-4.3,10.4-10.6,19.7-19,28        c-8.4,8.3-18.1,15.2-29,20.8c-10.9,5.6-22.5,9.9-34.8,12.8c-12.3,2.9-24.3,4.4-36,4.4c-20.5,0-39.4-4.2-56.6-12.6        c-17.2-8.4-32-19.5-44.4-33.4c-12.4-13.9-22-29.6-28.8-47.2C13114.9,9636.7,13111.5,9618.9,13111.5,9600.7z M13647.5,9461.1        v284h-65.6v-116.4h-113.2v116.4h-65.6v-284h65.6v110h113.2v-110H13647.5z M13779.1,9461.1h59.2l103.6,284h-67.2l-22-63.6        h-88.4l-21.6,63.6h-67.2L13779.1,9461.1z M13841.9,9636.3l-33.2-100.4l-34,100.4H13841.9z M14193.9,9745.1v-170l-61.6,123.6        h-35.2l-61.6-123.6v170h-65.6v-284h71.2l73.6,148.4l74-148.4h70.8v284H14193.9z M14548.7,9672.3c0,12.3-2.5,22.9-7.6,32        c-5.1,9.1-12,16.6-20.8,22.6c-8.8,6-19.1,10.5-30.8,13.6c-11.7,3.1-24.1,4.6-37.2,4.6h-138.4v-284h158        c9.9,0,18.8,2.1,26.8,6.4c8,4.3,14.8,9.8,20.4,16.6c5.6,6.8,9.9,14.5,13,23.2c3.1,8.7,4.6,17.5,4.6,26.6        c0,13.6-3.4,26.4-10.2,38.4s-17,21.1-30.6,27.2c16.3,4.8,29.1,13.3,38.6,25.6C14544,9637.4,14548.7,9653.1,14548.7,9672.3z         M14379.5,9517.1v58.8h64.4c7.2,0,13.6-2.4,19.2-7.2c5.6-4.8,8.4-12.3,8.4-22.4c0-9.3-2.5-16.5-7.4-21.6        c-4.9-5.1-10.9-7.6-17.8-7.6H14379.5z M14481.9,9659.1c0-8.8-2.5-16.3-7.6-22.4c-5.1-6.1-11.5-9.2-19.2-9.2h-75.6v62h72.8        c8.5,0,15.6-2.8,21.2-8.4C14479.1,9675.5,14481.9,9668.2,14481.9,9659.1z M14787.1,9687.5v57.6h-199.6v-284h196v57.6h-130.4        v55.2h112v53.2h-112v60.4H14787.1z M14827.1,9745.1v-284h128c13.3,0,25.7,2.8,37,8.4c11.3,5.6,21.1,12.9,29.4,22        c8.3,9.1,14.7,19.3,19.4,30.8c4.7,11.5,7,23.1,7,34.8c0,8.8-1.1,17.3-3.2,25.4c-2.1,8.1-5.2,15.8-9.2,23        c-4,7.2-8.9,13.7-14.6,19.4c-5.7,5.7-12.2,10.6-19.4,14.6l62.4,105.6h-74l-54.4-91.6h-42.8v91.6H14827.1z M14892.7,9596.3h60        c7.7,0,14.4-3.7,20-11c5.6-7.3,8.4-16.7,8.4-28.2c0-11.7-3.2-21.1-9.6-28c-6.4-6.9-13.3-10.4-20.8-10.4h-58V9596.3z"></path>
					</defs>
					<clipPath id="SVGID_00000088107185148881413080000008656959979627146662_">
						<use xlink:href="#SVGID_1_" style="overflow:visible;"></use>
					</clipPath>
					
						<linearGradient id="Rectangle_60_00000134232492986430312620000000009932907212795269_" gradientUnits="userSpaceOnUse" x1="14006.4238" y1="12120.7305" x2="14007.3809" y2="12120.7441" gradientTransform="matrix(2054 0 0 -589 -28756098 7148846)">
						<stop offset="0" style="stop-color:#A43CFF"></stop>
						<stop offset="1" style="stop-color:#675FFF"></stop>
					</linearGradient>
					
						<rect id="Rectangle_60" x="13059.3" y="9437.1" style="clip-path:url(#SVGID_00000088107185148881413080000008656959979627146662_);fill:url(#Rectangle_60_00000134232492986430312620000000009932907212795269_);" width="2054" height="589"></rect>
				</g>
				<g class="st1">
					<path d="M13137.4,9299.3v37.4h97.9v28.4h-97.9v37.5h-24.9v-103.3H13137.4z"></path>
					<path d="M13112.5,9179.7h122.8v28.4h-50.3v49h50.3v28.4h-122.8v-28.4h47.6v-49h-47.6V9179.7z"></path>
					<path d="M13210.4,9069.9h24.9v86.3h-122.8v-84.8h24.9v56.4h23.9v-48.4h23v48.4h26.1V9069.9z"></path>
				</g>
				<g class="st1">
					<path d="M13312.5,9398.1V9068h123.2c27.3,0,51.1,4.3,71.6,13c20.5,8.7,37.6,20.5,51.4,35.3c13.8,14.9,24.2,32.3,31.2,52.3       c7,20,10.5,41.3,10.5,63.9c0,25.1-3.9,47.8-11.6,68.1c-7.8,20.3-18.8,37.7-33.2,52.1s-31.8,25.6-52.1,33.5       c-20.3,7.9-42.9,11.9-67.7,11.9H13312.5z M13522.6,9232.6c0-14.6-1.9-27.8-5.8-39.8c-3.9-11.9-9.5-22.2-17-30.9       c-7.4-8.7-16.6-15.3-27.4-20c-10.9-4.7-23.1-7-36.7-7h-47v196.2h47c13.9,0,26.3-2.5,37.2-7.4c10.8-5,19.9-11.9,27.2-20.7       c7.3-8.8,12.9-19.2,16.7-31.2C13520.7,9260,13522.6,9246.9,13522.6,9232.6z"></path>
					<path d="M13645.4,9398.1V9068h76.3v330.2H13645.4z"></path>
					<path d="M14011.8,9365.6c-25.1,23.2-54.1,34.9-87,34.9c-21.7,0-42.2-4.1-61.4-12.3c-19.2-8.2-36-19.8-50.5-34.6       s-25.8-32.8-34.2-53.7s-12.6-43.9-12.6-69.1c0-22.6,4.2-44,12.6-64.2c8.4-20.1,19.9-37.7,34.6-52.5       c14.7-14.9,32.2-26.7,52.3-35.3c20.1-8.7,41.8-13,65.1-13c30.7,0,57.5,6.4,80.4,19.3c22.9,12.9,40.1,30.5,51.6,52.8l-56.7,42.8       c-7.4-14.9-18.2-26.4-32.3-34.6c-14.1-8.2-29.4-12.3-45.8-12.3c-12.7,0-24.3,2.6-34.6,7.7c-10.4,5.1-19.3,12.2-26.7,21.4       c-7.4,9.1-13.2,19.8-17.2,31.9c-4,12.1-6,25.1-6,39.1c0,14.3,2.2,27.4,6.5,39.5c4.3,12.1,10.4,22.6,18.1,31.4       c7.7,8.8,17,15.7,27.7,20.7c10.7,5,22.6,7.4,35.6,7.4c29.8,0,56.6-13.8,80.4-41.4V9281h-64.2v-55.3h127.4v172.5h-63.2V9365.6z"></path>
					<path d="M14125.3,9398.1V9068h76.3v330.2H14125.3z"></path>
					<path d="M14516.3,9135h-100.4v263.2h-76.3V9135h-100.9v-67h277.6V9135z"></path>
					<path d="M14610.7,9068h68.8l120.4,330.2h-78.1l-25.6-73.9h-102.8l-25.1,73.9h-78.1L14610.7,9068z M14683.7,9271.7l-38.6-116.7       l-39.5,116.7H14683.7z"></path>
					<path d="M14832.5,9398.1V9068h76.3v263.2h160v67H14832.5z"></path>
				</g>
			</g>
		</g>
	</g>
	
		<linearGradient id="Subtraction_1_00000139288910999017753780000001971159383119520191_" gradientUnits="userSpaceOnUse" x1="910.3435" y1="3077.1755" x2="909.3435" y2="3077.1755" gradientTransform="matrix(1957 0 0 -201 -1779571 619373)">
		<stop offset="0" style="stop-color:#675FFF"></stop>
		<stop offset="1" style="stop-color:#A43CFF"></stop>
	</linearGradient>
	<path id="Subtraction_1" style="fill:url(#Subtraction_1_00000139288910999017753780000001971159383119520191_);" d="M1971.3,961.2   H14.3v-201h1957V961.2z M54.3,801.2v120h1877v-120H54.3z"></path>
</g>
</svg>
